<?xml version="1.0" encoding="UTF-8" standalone="no"?>
<!DOCTYPE svg PUBLIC "-//W3C//DTD SVG 1.1//EN" "http://www.w3.org/Graphics/SVG/1.1/DTD/svg11.dtd">
<svg width="100%" height="100%" viewBox="0 0 885 286" version="1.1" xmlns="http://www.w3.org/2000/svg" xmlns:xlink="http://www.w3.org/1999/xlink" xml:space="preserve" xmlns:serif="http://www.serif.com/" style="fill-rule:evenodd;clip-rule:evenodd;stroke-linejoin:round;stroke-miterlimit:2;">
    <g transform="matrix(0.1,0,0,-0.1,0,286)">
        <g id="bg" transform="matrix(10,0,0,-10,0,2860)">
            <path d="M149,262L178,252L194,239L205,218L217,199L244,196L284,193L292,197L292,211L306,222L318,245L352,221L439,206L568,190L707,174L758,163L775,148L785,126L786,109L774,95L782,55L772,48L761,50L742,50L728,59L717,69L712,56L725,43L729,30L720,21L711,18L706,28L693,44L687,50L687,66L681,75L676,79L671,66L659,60L647,62L640,67L631,62L618,63L599,119L605,77L601,69L592,67L583,68L569,69L552,76L541,91L526,134L533,91L528,76L516,74L502,81L496,86L487,76L476,79L468,85L456,81L445,82L440,97L432,89L418,86L411,89L398,88L383,96L374,106L368,104L363,95L350,90L337,94L326,102L320,98L325,79L327,70L321,59L302,59L285,118L280,108L268,102L260,106C260,106 238.415,102.997 229.778,111.634C221.111,120.3 209,153 209,153L190.429,127.06L168.935,95.022L176.379,59.358L205.019,53.589L217.258,62.38L216.441,76.966L207.117,85.103C187.532,68.071 185.842,81.211 189.548,103.451L214.258,112.484L239,96L246,64L239,49L224,29L208,24L191,23L179,27L163,34L151,48L140,63L134,84L137,108L150,130L171,155L184,178L184,200L175,218L158,229L139,229L122,221L113,207L114,193L125,180L138,179L140,187L132,197L139,208L155,206C139.743,215.976 163,197 163,197L167,184L165,169L154,155L138,147L125,148L110,153L97,163L89,174L83,188L80,202L83,217L86,229L95,242L116,253L149,262Z" style="fill:url(#_Linear1);"/>
        </g>
        <g transform="matrix(1,0,0,1,0,-50)">
            <path d="M7090,2697C7074,2689 7058,2664 7041,2620C7020,2565 7001,2540 6922,2461L6828,2368L6834,2311C6839,2263 6836,2246 6812,2196L6784,2136L6757,2183C6701,2277 6609,2316 6508,2286C6477,2277 6442,2262 6429,2251C6407,2233 6406,2233 6372,2253C6344,2270 6327,2272 6264,2267C6159,2259 6143,2246 6103,2141C6094,2118 6094,2118 6068,2157C6054,2179 6026,2204 6007,2213C5966,2233 5878,2235 5847,2218C5835,2212 5785,2206 5735,2206C5662,2205 5636,2201 5597,2182C5549,2158 5463,2081 5418,2022L5393,1988L5360,2040C5312,2114 5270,2140 5195,2140C5130,2140 5070,2118 5012,2073C4979,2048 4979,2048 4957,2068C4922,2100 4894,2110 4845,2110C4797,2110 4737,2090 4708,2064C4693,2049 4687,2050 4645,2065C4611,2078 4585,2081 4540,2077C4460,2068 4425,2049 4404,2001L4387,1962L4344,1993C4286,2034 4198,2042 4147,2013C4126,2000 4108,1996 4095,2001C4084,2005 4050,2009 4020,2009C3945,2010 3874,1976 3794,1898C3759,1865 3729,1839 3727,1841C3725,1843 3713,1862 3700,1883C3686,1903 3658,1932 3637,1947C3563,1999 3418,1988 3335,1924C3310,1906 3290,1893 3290,1898C3290,1902 3302,1962 3317,2032C3343,2158 3343,2160 3325,2200C3315,2222 3289,2256 3268,2275C3236,2305 3223,2310 3182,2309C3093,2309 3000,2294 2984,2279C2976,2270 2943,2163 2911,2041C2879,1919 2850,1817 2847,1814C2845,1811 2827,1818 2808,1830C2758,1859 2691,1866 2632,1847C2595,1834 2575,1833 2549,1840C2530,1846 2496,1847 2473,1844L2431,1838L2460,1912C2497,2007 2514,2107 2507,2184C2486,2403 2320,2595 2109,2645C1983,2674 1858,2656 1720,2589C1649,2554 1619,2531 1535,2446C1453,2364 1427,2329 1392,2260C1331,2137 1306,2029 1313,1914C1323,1746 1374,1644 1560,1420C1699,1254 1764,1161 1784,1103C1835,956 1801,782 1705,685C1620,601 1475,567 1359,605C1259,638 1190,733 1190,836C1190,892 1232,975 1272,1000C1314,1026 1370,1027 1370,1003C1370,978 1360,967 1317,941C1297,929 1277,907 1274,894C1249,796 1372,675 1477,695C1567,712 1647,776 1692,868C1722,928 1725,943 1724,1020C1723,1196 1625,1337 1461,1402C1377,1435 1248,1433 1160,1396C1039,1347 903,1225 848,1116C788,998 766,843 790,701C852,330 1295,92 1685,222C1910,296 2107,487 2187,707C2200,744 2213,776 2215,778C2217,780 2236,776 2258,769C2314,753 2377,765 2445,805L2502,840L2540,820C2599,790 2690,793 2757,827C2809,853 2810,853 2848,836C2885,819 2886,817 2885,768C2885,718 2887,715 2930,683C3039,602 3049,591 3102,482C3154,378 3156,375 3191,372C3222,369 3235,376 3281,415C3311,441 3380,484 3435,510C3744,660 4116,730 5250,850C7272,1064 7312,1069 7491,1126C7635,1173 7735,1249 7820,1376C7945,1566 7945,1794 7819,1877C7798,1891 7780,1909 7780,1916C7780,1924 7800,2001 7825,2087C7850,2174 7868,2254 7866,2265C7858,2295 7791,2378 7768,2386C7756,2390 7615,2409 7584,2391C7556,2374 7541,2371 7517,2378C7433,2401 7337,2364 7239,2269C7198,2229 7179,2217 7175,2227C7172,2235 7170,2243 7170,2245C7170,2247 7202,2274 7240,2305C7329,2376 7343,2397 7343,2465C7343,2554 7279,2652 7195,2691C7148,2713 7124,2714 7090,2697ZM7218,2595C7255,2555 7258,2530 7230,2485C7205,2445 7156,2411 7060,2367C6893,2290 6867,2308 6978,2425C7030,2479 7066,2528 7088,2574C7121,2641 7122,2642 7153,2636C7171,2633 7199,2615 7218,2595ZM2181,2553C2307,2491 2384,2378 2397,2236C2412,2071 2325,1894 2198,1829C2103,1780 1971,1810 1928,1890C1908,1928 1904,2010 1920,2041C1933,2064 1970,2067 1970,2045C1970,2018 2017,1980 2050,1980C2213,1980 2267,2259 2122,2355C2009,2430 1847,2401 1746,2289C1670,2206 1629,2063 1650,1953C1670,1843 1716,1767 1894,1545C2010,1402 2055,1331 2086,1242L2108,1177L2115,1216C2156,1458 2279,1688 2404,1752C2457,1780 2526,1780 2571,1754L2605,1734L2629,1763C2651,1790 2657,1792 2707,1788C2765,1783 2800,1760 2800,1725C2800,1713 2780,1636 2755,1554C2698,1368 2662,1231 2654,1169C2646,1109 2667,1094 2706,1131C2761,1183 2797,1285 2879,1626C2985,2066 3020,2204 3030,2220C3035,2228 3066,2235 3114,2238C3197,2243 3220,2234 3220,2194C3220,2182 3173,1979 3115,1743C2981,1200 2973,1165 2990,1145C2997,1137 3008,1130 3015,1130C3039,1130 3086,1198 3110,1267C3151,1382 3233,1448 3301,1420C3328,1409 3344,1370 3321,1370C3316,1370 3298,1357 3281,1341C3255,1317 3250,1304 3250,1267C3250,1215 3278,1175 3321,1165C3342,1160 3355,1165 3380,1188C3408,1212 3414,1225 3418,1274C3422,1329 3420,1337 3350,1476C3268,1640 3256,1691 3284,1765C3303,1813 3364,1874 3416,1896C3460,1914 3554,1914 3590,1895C3628,1875 3650,1832 3650,1778C3650,1701 3603,1649 3547,1663C3516,1671 3506,1698 3519,1734C3532,1766 3524,1790 3500,1790C3471,1790 3450,1762 3450,1722C3450,1684 3465,1653 3558,1502C3613,1412 3636,1332 3625,1272C3609,1185 3539,1095 3454,1054C3407,1031 3391,1028 3326,1032C3261,1035 3245,1040 3205,1068C3180,1085 3158,1100 3156,1100C3154,1100 3140,1081 3124,1058C3085,1003 3028,962 2975,955C2916,946 2851,975 2820,1025L2797,1062L2759,1017C2713,964 2667,940 2608,940C2559,940 2496,976 2485,1010C2476,1038 2469,1036 2428,986C2385,936 2319,900 2268,900C2221,900 2170,936 2145,985L2125,1025L2118,946C2102,770 2014,608 1867,482C1798,423 1655,349 1570,329C1484,309 1338,313 1245,339C990,410 850,584 850,830C850,990 892,1092 1005,1205C1184,1386 1415,1409 1554,1260C1599,1212 1630,1138 1630,1080C1630,989 1556,875 1477,845C1419,823 1362,828 1343,857C1329,878 1330,880 1364,894C1411,914 1440,962 1440,1023C1440,1134 1366,1187 1255,1155C1202,1140 1145,1090 1117,1035C1090,980 1077,890 1089,828C1136,571 1411,447 1658,571C1807,645 1892,813 1875,996C1861,1144 1793,1279 1653,1435C1467,1641 1401,1750 1380,1882C1362,1996 1393,2136 1461,2258C1511,2347 1660,2488 1750,2532C1851,2582 1887,2589 2010,2587C2107,2585 2121,2582 2181,2553ZM7717,2325C7751,2311 7752,2308 7748,2272C7745,2252 7713,2136 7677,2015C7584,1702 7577,1660 7620,1660C7647,1660 7671,1694 7695,1767C7715,1830 7719,1835 7746,1835C7769,1835 7778,1828 7792,1800C7815,1755 7815,1721 7790,1625C7732,1397 7557,1263 7257,1215C7065,1185 6242,1092 5580,1025C4327,900 3860,829 3538,714C3438,678 3298,607 3223,554L3161,509L3155,537C3132,642 3081,709 2989,756C2925,788 2927,790 3082,830C3398,912 4034,1005 4695,1065C4849,1079 5040,1097 5120,1105C5339,1127 5816,1166 6280,1200C7124,1262 7369,1293 7493,1356C7552,1386 7621,1445 7651,1489C7688,1546 7688,1557 7649,1529C7583,1482 7482,1496 7443,1558C7434,1573 7425,1586 7424,1588C7423,1590 7400,1569 7372,1541C7278,1447 7166,1451 7114,1551L7099,1581L7067,1539C7049,1516 7018,1483 6997,1466C6963,1439 6951,1435 6895,1435C6835,1435 6829,1437 6793,1472L6754,1510L6716,1464C6625,1356 6482,1351 6406,1454C6370,1501 6378,1596 6433,1794C6501,2038 6495,2071 6405,1977C6370,1941 6338,1893 6311,1837C6250,1710 6195,1473 6207,1393C6212,1360 6212,1360 6169,1360C6114,1360 6040,1393 6033,1420C6030,1431 6026,1440 6024,1440C6022,1440 5999,1418 5973,1391C5919,1336 5863,1313 5807,1324C5771,1331 5718,1372 5708,1400C5704,1411 5692,1403 5662,1369C5574,1270 5470,1263 5397,1350L5372,1380L5336,1331C5260,1228 5160,1194 5064,1240C5027,1258 5013,1272 4998,1308C4972,1366 4976,1399 5034,1607C5058,1696 5082,1789 5085,1814C5092,1856 5090,1860 5072,1860C5045,1860 4990,1795 4946,1711C4890,1604 4832,1341 4845,1254L4851,1210L4813,1210C4764,1210 4711,1238 4682,1280C4652,1324 4653,1391 4685,1514C4699,1567 4721,1653 4735,1705C4760,1802 4759,1830 4732,1830C4709,1830 4649,1761 4612,1692C4553,1581 4500,1368 4500,1239C4500,1174 4499,1170 4478,1170C4430,1170 4374,1194 4344,1226L4312,1259L4284,1219C4210,1111 4081,1102 4009,1199L3987,1229L3959,1190C3866,1062 3726,1071 3673,1208C3650,1269 3650,1426 3674,1525C3699,1626 3781,1787 3838,1847C3923,1935 4024,1964 4096,1919C4115,1908 4130,1902 4130,1907C4130,1912 4139,1926 4150,1938C4166,1954 4182,1960 4216,1960C4265,1960 4320,1930 4320,1904C4320,1896 4302,1830 4280,1758C4230,1595 4170,1360 4170,1326C4170,1291 4199,1292 4232,1328C4305,1405 4352,1525 4421,1806C4443,1899 4468,1981 4474,1988C4481,1995 4512,2004 4543,2007C4605,2013 4643,1997 4655,1960C4661,1941 4664,1942 4702,1974C4807,2065 4907,2061 4941,1965L4954,1931L5012,1986C5045,2016 5084,2046 5099,2054C5183,2098 5258,2078 5286,2004C5310,1940 5300,1868 5235,1640C5180,1447 5173,1401 5198,1392C5217,1386 5274,1454 5314,1529C5337,1574 5352,1620 5360,1673C5374,1767 5398,1839 5442,1922C5533,2094 5706,2191 5799,2123C5833,2097 5840,2095 5840,2112C5840,2141 5873,2160 5925,2160C5967,2160 5981,2155 6000,2135L6023,2111L5962,1898C5858,1535 5850,1461 5915,1504C5947,1525 6029,1649 6053,1711C6062,1735 6094,1847 6125,1960C6156,2073 6187,2171 6195,2179C6203,2187 6236,2196 6270,2198C6335,2203 6355,2194 6371,2152L6380,2128L6419,2159C6532,2249 6643,2251 6685,2164C6711,2109 6701,2027 6645,1835C6592,1655 6578,1554 6603,1544C6627,1535 6655,1555 6689,1606C6731,1670 6750,1725 6826,1998C6861,2128 6895,2239 6900,2244C6905,2249 6942,2255 6983,2258C7053,2262 7059,2261 7074,2239C7092,2211 7086,2181 6994,1872C6936,1674 6927,1610 6959,1610C6982,1610 7057,1690 7075,1733C7082,1751 7091,1790 7095,1820C7128,2084 7298,2312 7461,2312C7490,2312 7520,2305 7535,2296C7560,2279 7562,2280 7589,2309C7622,2344 7659,2349 7717,2325ZM2089,2245C2150,2214 2152,2117 2093,2071C2057,2042 2047,2044 2019,2088C1999,2118 1988,2126 1957,2128C1906,2132 1866,2090 1850,2016C1813,1836 2004,1635 2171,1680C2193,1686 2214,1689 2217,1686C2220,1683 2213,1668 2201,1652C2190,1635 2159,1579 2134,1526C2108,1473 2084,1430 2081,1430C2070,1430 1857,1698 1818,1760C1747,1873 1731,1967 1764,2068C1785,2131 1854,2210 1912,2239C1963,2264 2047,2267 2089,2245Z" style="fill-opacity:0.2;fill-rule:nonzero;"/>
        </g>
        <path d="M7090,2697C7074,2689 7058,2664 7041,2620C7020,2565 7001,2540 6922,2461L6828,2368L6834,2311C6839,2263 6836,2246 6812,2196L6784,2136L6757,2183C6701,2277 6609,2316 6508,2286C6477,2277 6442,2262 6429,2251C6407,2233 6406,2233 6372,2253C6344,2270 6327,2272 6264,2267C6159,2259 6143,2246 6103,2141C6094,2118 6094,2118 6068,2157C6054,2179 6026,2204 6007,2213C5966,2233 5878,2235 5847,2218C5835,2212 5785,2206 5735,2206C5662,2205 5636,2201 5597,2182C5549,2158 5463,2081 5418,2022L5393,1988L5360,2040C5312,2114 5270,2140 5195,2140C5130,2140 5070,2118 5012,2073C4979,2048 4979,2048 4957,2068C4922,2100 4894,2110 4845,2110C4797,2110 4737,2090 4708,2064C4693,2049 4687,2050 4645,2065C4611,2078 4585,2081 4540,2077C4460,2068 4425,2049 4404,2001L4387,1962L4344,1993C4286,2034 4198,2042 4147,2013C4126,2000 4108,1996 4095,2001C4084,2005 4050,2009 4020,2009C3945,2010 3874,1976 3794,1898C3759,1865 3729,1839 3727,1841C3725,1843 3713,1862 3700,1883C3686,1903 3658,1932 3637,1947C3563,1999 3418,1988 3335,1924C3310,1906 3290,1893 3290,1898C3290,1902 3302,1962 3317,2032C3343,2158 3343,2160 3325,2200C3315,2222 3289,2256 3268,2275C3236,2305 3223,2310 3182,2309C3093,2309 3000,2294 2984,2279C2976,2270 2943,2163 2911,2041C2879,1919 2850,1817 2847,1814C2845,1811 2827,1818 2808,1830C2758,1859 2691,1866 2632,1847C2595,1834 2575,1833 2549,1840C2530,1846 2496,1847 2473,1844L2431,1838L2460,1912C2497,2007 2514,2107 2507,2184C2486,2403 2320,2595 2109,2645C1983,2674 1858,2656 1720,2589C1649,2554 1619,2531 1535,2446C1453,2364 1427,2329 1392,2260C1331,2137 1306,2029 1313,1914C1323,1746 1374,1644 1560,1420C1699,1254 1764,1161 1784,1103C1835,956 1801,782 1705,685C1620,601 1475,567 1359,605C1259,638 1190,733 1190,836C1190,892 1232,975 1272,1000C1314,1026 1370,1027 1370,1003C1370,978 1360,967 1317,941C1297,929 1277,907 1274,894C1249,796 1372,675 1477,695C1567,712 1647,776 1692,868C1722,928 1725,943 1724,1020C1723,1196 1625,1337 1461,1402C1377,1435 1248,1433 1160,1396C1039,1347 903,1225 848,1116C788,998 766,843 790,701C852,330 1295,92 1685,222C1910,296 2107,487 2187,707C2200,744 2213,776 2215,778C2217,780 2236,776 2258,769C2314,753 2377,765 2445,805L2502,840L2540,820C2599,790 2690,793 2757,827C2809,853 2810,853 2848,836C2885,819 2886,817 2885,768C2885,718 2887,715 2930,683C3039,602 3049,591 3102,482C3154,378 3156,375 3191,372C3222,369 3235,376 3281,415C3311,441 3380,484 3435,510C3744,660 4116,730 5250,850C7272,1064 7312,1069 7491,1126C7635,1173 7735,1249 7820,1376C7945,1566 7945,1794 7819,1877C7798,1891 7780,1909 7780,1916C7780,1924 7800,2001 7825,2087C7850,2174 7868,2254 7866,2265C7858,2295 7791,2378 7768,2386C7756,2390 7615,2409 7584,2391C7556,2374 7541,2371 7517,2378C7433,2401 7337,2364 7239,2269C7198,2229 7179,2217 7175,2227C7172,2235 7170,2243 7170,2245C7170,2247 7202,2274 7240,2305C7329,2376 7343,2397 7343,2465C7343,2554 7279,2652 7195,2691C7148,2713 7124,2714 7090,2697ZM7218,2595C7255,2555 7258,2530 7230,2485C7205,2445 7156,2411 7060,2367C6893,2290 6867,2308 6978,2425C7030,2479 7066,2528 7088,2574C7121,2641 7122,2642 7153,2636C7171,2633 7199,2615 7218,2595ZM2181,2553C2307,2491 2384,2378 2397,2236C2412,2071 2325,1894 2198,1829C2103,1780 1971,1810 1928,1890C1908,1928 1904,2010 1920,2041C1933,2064 1970,2067 1970,2045C1970,2018 2017,1980 2050,1980C2213,1980 2267,2259 2122,2355C2009,2430 1847,2401 1746,2289C1670,2206 1629,2063 1650,1953C1670,1843 1716,1767 1894,1545C2010,1402 2055,1331 2086,1242L2108,1177L2115,1216C2156,1458 2279,1688 2404,1752C2457,1780 2526,1780 2571,1754L2605,1734L2629,1763C2651,1790 2657,1792 2707,1788C2765,1783 2800,1760 2800,1725C2800,1713 2780,1636 2755,1554C2698,1368 2662,1231 2654,1169C2646,1109 2667,1094 2706,1131C2761,1183 2797,1285 2879,1626C2985,2066 3020,2204 3030,2220C3035,2228 3066,2235 3114,2238C3197,2243 3220,2234 3220,2194C3220,2182 3173,1979 3115,1743C2981,1200 2973,1165 2990,1145C2997,1137 3008,1130 3015,1130C3039,1130 3086,1198 3110,1267C3151,1382 3233,1448 3301,1420C3328,1409 3344,1370 3321,1370C3316,1370 3298,1357 3281,1341C3255,1317 3250,1304 3250,1267C3250,1215 3278,1175 3321,1165C3342,1160 3355,1165 3380,1188C3408,1212 3414,1225 3418,1274C3422,1329 3420,1337 3350,1476C3268,1640 3256,1691 3284,1765C3303,1813 3364,1874 3416,1896C3460,1914 3554,1914 3590,1895C3628,1875 3650,1832 3650,1778C3650,1701 3603,1649 3547,1663C3516,1671 3506,1698 3519,1734C3532,1766 3524,1790 3500,1790C3471,1790 3450,1762 3450,1722C3450,1684 3465,1653 3558,1502C3613,1412 3636,1332 3625,1272C3609,1185 3539,1095 3454,1054C3407,1031 3391,1028 3326,1032C3261,1035 3245,1040 3205,1068C3180,1085 3158,1100 3156,1100C3154,1100 3140,1081 3124,1058C3085,1003 3028,962 2975,955C2916,946 2851,975 2820,1025L2797,1062L2759,1017C2713,964 2667,940 2608,940C2559,940 2496,976 2485,1010C2476,1038 2469,1036 2428,986C2385,936 2319,900 2268,900C2221,900 2170,936 2145,985L2125,1025L2118,946C2102,770 2014,608 1867,482C1798,423 1655,349 1570,329C1484,309 1338,313 1245,339C990,410 850,584 850,830C850,990 892,1092 1005,1205C1184,1386 1415,1409 1554,1260C1599,1212 1630,1138 1630,1080C1630,989 1556,875 1477,845C1419,823 1362,828 1343,857C1329,878 1330,880 1364,894C1411,914 1440,962 1440,1023C1440,1134 1366,1187 1255,1155C1202,1140 1145,1090 1117,1035C1090,980 1077,890 1089,828C1136,571 1411,447 1658,571C1807,645 1892,813 1875,996C1861,1144 1793,1279 1653,1435C1467,1641 1401,1750 1380,1882C1362,1996 1393,2136 1461,2258C1511,2347 1660,2488 1750,2532C1851,2582 1887,2589 2010,2587C2107,2585 2121,2582 2181,2553ZM7717,2325C7751,2311 7752,2308 7748,2272C7745,2252 7713,2136 7677,2015C7584,1702 7577,1660 7620,1660C7647,1660 7671,1694 7695,1767C7715,1830 7719,1835 7746,1835C7769,1835 7778,1828 7792,1800C7815,1755 7815,1721 7790,1625C7732,1397 7557,1263 7257,1215C7065,1185 6242,1092 5580,1025C4327,900 3860,829 3538,714C3438,678 3298,607 3223,554L3161,509L3155,537C3132,642 3081,709 2989,756C2925,788 2927,790 3082,830C3398,912 4034,1005 4695,1065C4849,1079 5040,1097 5120,1105C5339,1127 5816,1166 6280,1200C7124,1262 7369,1293 7493,1356C7552,1386 7621,1445 7651,1489C7688,1546 7688,1557 7649,1529C7583,1482 7482,1496 7443,1558C7434,1573 7425,1586 7424,1588C7423,1590 7400,1569 7372,1541C7278,1447 7166,1451 7114,1551L7099,1581L7067,1539C7049,1516 7018,1483 6997,1466C6963,1439 6951,1435 6895,1435C6835,1435 6829,1437 6793,1472L6754,1510L6716,1464C6625,1356 6482,1351 6406,1454C6370,1501 6378,1596 6433,1794C6501,2038 6495,2071 6405,1977C6370,1941 6338,1893 6311,1837C6250,1710 6195,1473 6207,1393C6212,1360 6212,1360 6169,1360C6114,1360 6040,1393 6033,1420C6030,1431 6026,1440 6024,1440C6022,1440 5999,1418 5973,1391C5919,1336 5863,1313 5807,1324C5771,1331 5718,1372 5708,1400C5704,1411 5692,1403 5662,1369C5574,1270 5470,1263 5397,1350L5372,1380L5336,1331C5260,1228 5160,1194 5064,1240C5027,1258 5013,1272 4998,1308C4972,1366 4976,1399 5034,1607C5058,1696 5082,1789 5085,1814C5092,1856 5090,1860 5072,1860C5045,1860 4990,1795 4946,1711C4890,1604 4832,1341 4845,1254L4851,1210L4813,1210C4764,1210 4711,1238 4682,1280C4652,1324 4653,1391 4685,1514C4699,1567 4721,1653 4735,1705C4760,1802 4759,1830 4732,1830C4709,1830 4649,1761 4612,1692C4553,1581 4500,1368 4500,1239C4500,1174 4499,1170 4478,1170C4430,1170 4374,1194 4344,1226L4312,1259L4284,1219C4210,1111 4081,1102 4009,1199L3987,1229L3959,1190C3866,1062 3726,1071 3673,1208C3650,1269 3650,1426 3674,1525C3699,1626 3781,1787 3838,1847C3923,1935 4024,1964 4096,1919C4115,1908 4130,1902 4130,1907C4130,1912 4139,1926 4150,1938C4166,1954 4182,1960 4216,1960C4265,1960 4320,1930 4320,1904C4320,1896 4302,1830 4280,1758C4230,1595 4170,1360 4170,1326C4170,1291 4199,1292 4232,1328C4305,1405 4352,1525 4421,1806C4443,1899 4468,1981 4474,1988C4481,1995 4512,2004 4543,2007C4605,2013 4643,1997 4655,1960C4661,1941 4664,1942 4702,1974C4807,2065 4907,2061 4941,1965L4954,1931L5012,1986C5045,2016 5084,2046 5099,2054C5183,2098 5258,2078 5286,2004C5310,1940 5300,1868 5235,1640C5180,1447 5173,1401 5198,1392C5217,1386 5274,1454 5314,1529C5337,1574 5352,1620 5360,1673C5374,1767 5398,1839 5442,1922C5533,2094 5706,2191 5799,2123C5833,2097 5840,2095 5840,2112C5840,2141 5873,2160 5925,2160C5967,2160 5981,2155 6000,2135L6023,2111L5962,1898C5858,1535 5850,1461 5915,1504C5947,1525 6029,1649 6053,1711C6062,1735 6094,1847 6125,1960C6156,2073 6187,2171 6195,2179C6203,2187 6236,2196 6270,2198C6335,2203 6355,2194 6371,2152L6380,2128L6419,2159C6532,2249 6643,2251 6685,2164C6711,2109 6701,2027 6645,1835C6592,1655 6578,1554 6603,1544C6627,1535 6655,1555 6689,1606C6731,1670 6750,1725 6826,1998C6861,2128 6895,2239 6900,2244C6905,2249 6942,2255 6983,2258C7053,2262 7059,2261 7074,2239C7092,2211 7086,2181 6994,1872C6936,1674 6927,1610 6959,1610C6982,1610 7057,1690 7075,1733C7082,1751 7091,1790 7095,1820C7128,2084 7298,2312 7461,2312C7490,2312 7520,2305 7535,2296C7560,2279 7562,2280 7589,2309C7622,2344 7659,2349 7717,2325ZM2089,2245C2150,2214 2152,2117 2093,2071C2057,2042 2047,2044 2019,2088C1999,2118 1988,2126 1957,2128C1906,2132 1866,2090 1850,2016C1813,1836 2004,1635 2171,1680C2193,1686 2214,1689 2217,1686C2220,1683 2213,1668 2201,1652C2190,1635 2159,1579 2134,1526C2108,1473 2084,1430 2081,1430C2070,1430 1857,1698 1818,1760C1747,1873 1731,1967 1764,2068C1785,2131 1854,2210 1912,2239C1963,2264 2047,2267 2089,2245Z" style="fill-rule:nonzero;"/>
        <path d="M2483,1579C2440,1551 2382,1462 2352,1376C2323,1294 2311,1156 2329,1122C2370,1045 2460,1184 2521,1418C2564,1586 2555,1626 2483,1579Z" style="fill-rule:nonzero;"/>
        <path d="M7454,2130C7426,2119 7374,2058 7346,2001C7299,1910 7269,1740 7289,1687C7324,1597 7419,1759 7486,2019C7504,2090 7507,2116 7499,2126C7486,2142 7483,2142 7454,2130Z" style="fill-rule:nonzero;"/>
        <path d="M5675,1923C5632,1879 5576,1768 5555,1685C5528,1580 5538,1470 5574,1470C5595,1470 5650,1538 5675,1594C5720,1697 5777,1917 5766,1946C5756,1972 5712,1962 5675,1923Z" style="fill-rule:nonzero;"/>
        <path d="M3992,1736C3945,1693 3887,1587 3865,1504C3845,1426 3845,1316 3866,1296C3888,1273 3895,1276 3929,1317C3967,1363 4013,1476 4045,1605C4086,1764 4069,1805 3992,1736Z" style="fill-rule:nonzero;"/>
    </g>
    <defs>
        <linearGradient id="_Linear1" x1="0" y1="0" x2="1" y2="0" gradientUnits="userSpaceOnUse" gradientTransform="matrix(-4,-56,56,-4,221,160)"><stop offset="0" style="stop-color:var(--vm-player-wave-b,#ec4899);stop-opacity:1"/><stop offset="1" style="stop-color:var(--vm-player-wave-a,#ebb305);stop-opacity:1"/></linearGradient>
    </defs>
</svg>
